<?xml version="1.0" encoding="utf-8"?>
<!-- Generator: Adobe Illustrator 26.2.1, SVG Export Plug-In . SVG Version: 6.00 Build 0)  -->
<!DOCTYPE svg PUBLIC "-//W3C//DTD SVG 1.1//EN" "http://www.w3.org/Graphics/SVG/1.1/DTD/svg11.dtd" [
	<!ENTITY ns_extend "http://ns.adobe.com/Extensibility/1.0/">
	<!ENTITY ns_ai "http://ns.adobe.com/AdobeIllustrator/10.0/">
	<!ENTITY ns_graphs "http://ns.adobe.com/Graphs/1.0/">
	<!ENTITY ns_vars "http://ns.adobe.com/Variables/1.0/">
	<!ENTITY ns_imrep "http://ns.adobe.com/ImageReplacement/1.0/">
	<!ENTITY ns_sfw "http://ns.adobe.com/SaveForWeb/1.0/">
	<!ENTITY ns_custom "http://ns.adobe.com/GenericCustomNamespace/1.0/">
	<!ENTITY ns_adobe_xpath "http://ns.adobe.com/XPath/1.0/">
]>
<svg version="1.1" id="Layer_1" xmlns:x="&ns_extend;" xmlns:i="&ns_ai;" xmlns:graph="&ns_graphs;"
	 xmlns="http://www.w3.org/2000/svg" xmlns:xlink="http://www.w3.org/1999/xlink" x="0px" y="0px" viewBox="0 0 780 400"
	 style="enable-background:new 0 0 780 400;" xml:space="preserve">
<style type="text/css">
	.st0{opacity:0.72;fill:#EBF0FA;enable-background:new    ;}
	.st1{fill:#EBF0FA;}
	.st2{fill:#C6DBFF;}
	.st3{fill:#FFFFFF;stroke:#3D7FFC;stroke-width:0.5;stroke-miterlimit:10;}
	.st4{fill:#C6DBFF;stroke:#3D7FFC;stroke-width:0.5;stroke-miterlimit:10;}
	.st5{fill:#3D7FFC;}
	.st6{fill:#FFFFFF;}
	.st7{fill:none;}
</style>
<metadata>
	<sfw  xmlns="&ns_sfw;">
		<slices></slices>
		<sliceSourceBounds  bottomLeftOrigin="true" height="400" width="780" x="0" y="-0.2"></sliceSourceBounds>
	</sfw>
</metadata>
<path class="st0" d="M780,400.2H0V0.2h780V400.2z"/>
<circle class="st1" cx="390" cy="200.2" r="185"/>
<path class="st2" d="M287.4,268.4l-17.2-9.9c-0.9-0.5-2.3-0.5-3.2,0l-17,9.9c-0.9,0.5-0.9,1.3,0,1.8l17.2,9.9c0.9,0.5,2.3,0.5,3.2,0
	l17-9.9C288.2,269.7,288.2,268.9,287.4,268.4"/>
<path class="st2" d="M470.8,309.9l-14.3-8.2c-0.7-0.4-1.9-0.4-2.6,0l-14.2,8.2c-0.7,0.4-0.7,1.1,0,1.5l14.3,8.2
	c0.7,0.4,1.9,0.4,2.6,0l14.2-8.2C471.5,311,471.5,310.3,470.8,309.9"/>
<path class="st2" d="M393.2,306.6l-10.1-5.8c-0.5-0.3-1.3-0.3-1.9,0l-10,5.8c-0.5,0.3-0.5,0.8,0,1.1l10.1,5.8c0.5,0.3,1.3,0.3,1.9,0
	l10-5.8C393.7,307.4,393.7,306.9,393.2,306.6"/>
<path class="st2" d="M268.4,220.7l-10.1-5.8c-0.5-0.3-1.3-0.3-1.9,0l-10,5.8c-0.5,0.3-0.5,0.8,0,1.1l10.1,5.8c0.5,0.3,1.3,0.3,1.9,0
	l10-5.8C268.9,221.4,268.9,221,268.4,220.7"/>
<path class="st2" d="M338.1,294.7l-32-18.5c-1.6-0.9-4.3-0.9-5.9,0l-31.8,18.5c-1.6,0.9-1.6,2.5,0,3.4l32,18.5
	c1.6,0.9,4.3,0.9,5.9,0l31.8-18.5C339.7,297.2,339.7,295.7,338.1,294.7"/>
<g>
	<polygon class="st3" points="443,116.5 442.8,194 333,130.6 333.2,53.1 384.7,80.6 	"/>
	<path class="st4" d="M446.7,111.1c0-1.8-1.3-4-2.8-4.9L339.8,46c-0.8-0.5-1.5-0.5-2-0.2l-3.7,2.1c0.5-0.3,1.2-0.3,2,0.2l52,32.3
		l52.1,27.8c1.6,0.9,2.8,3.1,2.8,4.9l0,3l0,1.9l0-1.6l0,0.1l-0.2,77.4l3.7-2.1l0.2-77.8l0,0L446.7,111.1z"/>
	<path class="st5" d="M440.2,108.3c1.6,0.9,2.8,3.1,2.8,4.9l0,3.3L333.2,53.1l0-3.3c0-1.8,1.3-2.5,2.9-1.6L440.2,108.3z"/>
	<g>
		<g>
			<polygon class="st6" points="416.6,115.8 399.6,106 382.6,96.1 369.1,88.3 368.9,148.5 440.4,189.8 440.6,129.6 			"/>
			<polygon class="st6" points="335.6,69 335.5,129.2 365,146.2 365.2,86.1 			"/>
		</g>
		<path class="st2" d="M379.9,98.8l-5.9-3.4c-0.4-0.2-0.7,0-0.7,0.4c0,0.4,0.3,1,0.7,1.2l5.9,3.4c0.4,0.2,0.7,0,0.7-0.4
			C380.6,99.6,380.3,99,379.9,98.8"/>
		<g>
			<path class="st2" d="M405.4,113.5l-5.9-3.4c-0.4-0.2-0.7,0-0.7,0.4c0,0.4,0.3,1,0.7,1.2l5.9,3.4c0.4,0.2,0.7,0,0.7-0.4
				C406.1,114.3,405.8,113.8,405.4,113.5"/>
			<path class="st2" d="M379.9,103.6l-5.9-3.4c-0.4-0.2-0.7,0-0.7,0.4c0,0.4,0.3,1,0.7,1.2l5.9,3.4c0.4,0.2,0.7,0,0.7-0.4
				C380.6,104.4,380.3,103.8,379.9,103.6"/>
			<path class="st2" d="M399.8,115.1l-5.9-3.4c-0.4-0.2-0.7,0-0.7,0.4c0,0.4,0.3,1,0.7,1.2l5.9,3.4c0.4,0.2,0.7,0,0.7-0.4
				C400.5,115.9,400.2,115.3,399.8,115.1"/>
			<path class="st2" d="M379.9,108.4L374,105c-0.4-0.2-0.7,0-0.7,0.4c0,0.4,0.3,1,0.7,1.2l5.9,3.4c0.4,0.2,0.7,0,0.7-0.4
				C380.6,109.2,380.3,108.6,379.9,108.4"/>
			<path class="st2" d="M404,122.3l-5.9-3.4c-0.4-0.2-0.7,0-0.7,0.4c0,0.4,0.3,1,0.7,1.2l5.9,3.4c0.4,0.2,0.7,0,0.7-0.4
				C404.7,123.1,404.4,122.6,404,122.3"/>
			<path class="st2" d="M382.6,118l-8.7-5c-0.4-0.2-0.7,0-0.7,0.4c0,0.4,0.3,1,0.7,1.2l8.7,5c0.4,0.2,0.7,0,0.7-0.4
				C383.3,118.8,383,118.3,382.6,118"/>
			<path class="st2" d="M381.2,122l-3.1-1.8c-0.4-0.2-0.7,0-0.7,0.4c0,0.4,0.3,1,0.7,1.2l3.1,1.8c0.4,0.2,0.7,0,0.7-0.4
				C381.9,122.8,381.6,122.3,381.2,122"/>
			<path class="st2" d="M385.4,129.3l-3.1-1.8c-0.4-0.2-0.7,0-0.7,0.4c0,0.4,0.3,1,0.7,1.2l3.1,1.8c0.4,0.2,0.7,0,0.7-0.4
				C386.1,130,385.8,129.5,385.4,129.3"/>
			<path class="st2" d="M389.5,150.9l-7.3-4.2c-0.4-0.2-0.7,0-0.7,0.4c0,0.4,0.3,1,0.7,1.2l7.3,4.2c0.4,0.2,0.7,0,0.7-0.4
				C390.2,151.6,389.9,151.1,389.5,150.9"/>
			<path class="st2" d="M398,155.8l-5.7-3.3c-0.4-0.2-0.7,0-0.7,0.4c0,0.4,0.3,1,0.7,1.2l5.7,3.3c0.4,0.2,0.7,0,0.7-0.4
				C398.7,156.5,398.4,156,398,155.8"/>
			<path class="st2" d="M395.2,149.3l-7.1-4.1c-0.4-0.2-0.7,0-0.7,0.4c0,0.4,0.3,1,0.7,1.2l7.1,4.1c0.4,0.2,0.7,0,0.7-0.4
				C395.9,150.1,395.6,149.6,395.2,149.3"/>
		</g>
		<g>
			<path class="st2" d="M396.7,108.5l-14-8.1c-0.4-0.2-0.7,0-0.7,0.4c0,0.4,0.3,1,0.7,1.2l14,8.1c0.4,0.2,0.7,0,0.7-0.4
				C397.4,109.3,397.1,108.7,396.7,108.5"/>
			<path class="st2" d="M422,123.1l-13.8-8c-0.4-0.2-0.7,0-0.7,0.4c0,0.4,0.3,1,0.7,1.2l13.8,8c0.4,0.2,0.7,0,0.7-0.4
				C422.7,123.9,422.3,123.3,422,123.1"/>
			<path class="st2" d="M391.1,110.1l-8.5-4.9c-0.4-0.2-0.7,0-0.7,0.4c0,0.4,0.3,1,0.7,1.2l8.5,4.9c0.4,0.2,0.7,0,0.7-0.4
				C391.8,110.9,391.5,110.3,391.1,110.1"/>
			<path class="st2" d="M414.6,123.7l-12-7c-0.4-0.2-0.7,0-0.7,0.4c0,0.4,0.3,1,0.7,1.2l12,7c0.4,0.2,0.7,0,0.7-0.4
				C415.3,124.4,415,123.9,414.6,123.7"/>
			<path class="st2" d="M395.3,117.3l-12.6-7.3c-0.4-0.2-0.7,0-0.7,0.4c0,0.4,0.3,1,0.7,1.2l12.6,7.3c0.4,0.2,0.7,0,0.7-0.4
				C396,118.1,395.7,117.5,395.3,117.3"/>
			<path class="st2" d="M409,125.3l-2.3-1.3c-0.4-0.2-0.7,0-0.7,0.4c0,0.4,0.3,1,0.7,1.2l2.3,1.3c0.4,0.2,0.7,0,0.7-0.4
				C409.7,126,409.4,125.5,409,125.3"/>
			<path class="st2" d="M421.9,140.7l-36.5-21.1c-0.4-0.2-0.7,0-0.7,0.4c0,0.4,0.3,1,0.7,1.2l36.5,21.1c0.4,0.2,0.7,0,0.7-0.4
				C422.6,141.5,422.3,140.9,421.9,140.7"/>
			<path class="st2" d="M413,140.4l-29-16.7c-0.4-0.2-0.7,0-0.7,0.4c0,0.4,0.3,1,0.7,1.2l29,16.7c0.4,0.2,0.7,0,0.7-0.4
				C413.7,141.1,413.4,140.6,413,140.4"/>
			<path class="st2" d="M400.8,138.1l-12.6-7.3c-0.4-0.2-0.7,0-0.7,0.4c0,0.4,0.3,1,0.7,1.2l12.6,7.3c0.4,0.2,0.7,0,0.7-0.4
				C401.5,138.9,401.2,138.4,400.8,138.1"/>
			<path class="st2" d="M418.9,148.6l-15.3-8.8c-0.4-0.2-0.7,0-0.7,0.4c0,0.4,0.3,1,0.7,1.2l15.3,8.8c0.4,0.2,0.7,0,0.7-0.4
				C419.6,149.3,419.3,148.8,418.9,148.6"/>
			<path class="st2" d="M396.6,140.5l-8.4-4.9c-0.4-0.2-0.7,0-0.7,0.4c0,0.4,0.3,1,0.7,1.2l8.4,4.9c0.4,0.2,0.7,0,0.7-0.4
				C397.3,141.3,397,140.7,396.6,140.5"/>
			<path class="st2" d="M414.7,151l-15.3-8.8c-0.4-0.2-0.7,0-0.7,0.4c0,0.4,0.3,1,0.7,1.2l15.3,8.8c0.4,0.2,0.7,0,0.7-0.4
				C415.4,151.7,415.1,151.2,414.7,151"/>
			<path class="st2" d="M400.7,147.7l-12.6-7.3c-0.4-0.2-0.7,0-0.7,0.4c0,0.4,0.3,1,0.7,1.2l12.6,7.3c0.4,0.2,0.7,0,0.7-0.4
				C401.4,148.5,401.1,148,400.7,147.7"/>
			<path class="st2" d="M411.9,154.2l-8.3-4.8c-0.4-0.2-0.7,0-0.7,0.4c0,0.4,0.3,1,0.7,1.2l8.3,4.8c0.4,0.2,0.7,0,0.7-0.4
				C412.6,154.9,412.3,154.4,411.9,154.2"/>
			<path class="st2" d="M428.1,163.5l-13.5-7.8c-0.4-0.2-0.7,0-0.7,0.4c0,0.4,0.3,1,0.7,1.2l13.5,7.8c0.4,0.2,0.7,0,0.7-0.4
				C428.8,164.3,428.5,163.8,428.1,163.5"/>
			<path class="st2" d="M411.9,159l-13.9-8c-0.4-0.2-0.7,0-0.7,0.4c0,0.4,0.3,1,0.7,1.2l13.9,8c0.4,0.2,0.7,0,0.7-0.4
				C412.6,159.7,412.2,159.2,411.9,159"/>
		</g>
		<path class="st2" d="M441.2,123.4c-0.1-0.1-0.2-0.2-0.2-0.3l-75.4-43.5l-30.2-17.4c-0.1-0.1-0.2-0.1-0.2,0c-0.1,0-0.1,0.1-0.1,0.2
			l0,5.9l-0.2,60.9c0,0.1,0,0.2,0.1,0.3c0.1,0.1,0.2,0.2,0.2,0.3l30.2,17.4l75.4,43.5c0.1,0.1,0.2,0.1,0.2,0c0.1,0,0.1-0.1,0.1-0.2
			l0.2-60.9l0-5.9C441.3,123.6,441.2,123.5,441.2,123.4z M365,146.2l-29.5-17l0.2-60.1l9.6,5.6l10.1,5.8l9.8,5.7L365,146.2z
			 M440.4,189.8l-71.5-41.3l0.2-60.1l13.5,7.8l17,9.8l17,9.8l23.9,13.8L440.4,189.8z"/>
		<g>
			<polyline class="st5" points="338.1,73.8 338.1,77.3 340.7,77.1 338.1,73.8 			"/>
			<path class="st2" d="M356.3,85.2l-13.5-7.8c-0.4-0.2-0.8,0-0.8,0.4c0,0.5,0.3,1.1,0.8,1.3l13.5,7.8c0.4,0.2,0.8,0,0.8-0.4
				C357.1,86,356.7,85.4,356.3,85.2"/>
			<polyline class="st5" points="342,95.4 342,98.8 344.6,98.6 342,95.4 			"/>
			<path class="st2" d="M360.2,106.7L346.8,99c-0.4-0.2-0.8,0-0.8,0.4c0,0.5,0.3,1.1,0.8,1.3l13.5,7.8c0.4,0.2,0.8,0,0.8-0.4
				C361,107.5,360.7,107,360.2,106.7"/>
			<polyline class="st5" points="342,101.8 342,105.2 344.6,105 342,101.8 			"/>
			<path class="st2" d="M354.9,110.1l-8.2-4.7c-0.4-0.2-0.8,0-0.8,0.4s0.3,1.1,0.8,1.3l8.2,4.7c0.4,0.2,0.8,0,0.8-0.4
				C355.7,110.9,355.3,110.3,354.9,110.1"/>
			<polyline class="st5" points="342,108.2 342,111.6 344.6,111.4 342,108.2 			"/>
			<path class="st2" d="M358.5,118.6l-11.8-6.8c-0.4-0.2-0.8,0-0.8,0.4c0,0.5,0.3,1.1,0.8,1.3l11.8,6.8c0.4,0.2,0.8,0,0.8-0.4
				C359.3,119.4,358.9,118.8,358.5,118.6"/>
			<polyline class="st5" points="342,114.6 342,118 344.6,117.8 342,114.6 			"/>
			<path class="st2" d="M353.5,122.1l-6.8-3.9c-0.4-0.2-0.8,0-0.8,0.4c0,0.5,0.3,1.1,0.8,1.3l6.8,3.9c0.4,0.2,0.8,0,0.8-0.4
				C354.2,122.9,353.9,122.3,353.5,122.1"/>
			<polyline class="st5" points="338.1,80.2 338.1,83.7 340.7,83.5 338.1,80.2 			"/>
			<path class="st2" d="M360.5,94.1l-17.7-10.2c-0.4-0.2-0.8,0-0.8,0.4c0,0.5,0.3,1.1,0.8,1.3l17.7,10.2c0.4,0.2,0.8,0,0.8-0.4
				C361.3,94.9,361,94.3,360.5,94.1"/>
			<polyline class="st5" points="340.4,88.7 337.4,87 338.9,90.9 340.4,88.7 			"/>
			<path class="st2" d="M353.2,96.3l-10.4-6c-0.4-0.2-0.8,0-0.8,0.4c0,0.5,0.3,1.1,0.8,1.3l10.4,6c0.4,0.2,0.8,0,0.8-0.4
				C354,97.1,353.7,96.5,353.2,96.3"/>
		</g>
	</g>
</g>
<g>
	<polygon class="st3" points="468,195.8 467.8,288.1 374.2,234 374.4,141.7 425.9,169.2 	"/>
	<path class="st4" d="M471.7,190.3c0-1.8-1.3-4-2.8-4.9L381,134.6c-0.8-0.5-1.5-0.5-2-0.2l-3.7,2.1c0.5-0.3,1.2-0.3,2,0.2l52,32.3
		l35.9,18.5c1.6,0.9,2.8,3.1,2.8,4.9l0,3l0,0.1l-0.2,92.3l3.7-2.1l0.2-92l0,0L471.7,190.3z"/>
	<path class="st5" d="M465.2,187.5c1.6,0.9,2.8,3.1,2.8,4.9l0,3.3l-93.6-54.1l0-3.3c0-1.8,1.3-2.5,2.9-1.6L465.2,187.5z"/>
	<g>
		<g>
			<polygon class="st6" points="457.8,204.4 440.8,194.5 423.7,184.7 410.3,176.9 410.1,251.9 465.4,283.9 465.6,208.8 			"/>
			<polygon class="st6" points="376.8,157.6 376.7,232.6 406.2,249.7 406.3,174.6 			"/>
		</g>
		<g>
			<path class="st2" d="M452.4,201.2l-17-9.8L452.4,201.2 M452.8,195.5L435,185.3l0,5.1l0.7,0.4l0-5.1l16.3,9.4l0,5.1l0.7,0.4
				L452.8,195.5"/>
		</g>
		<path class="st2" d="M466.2,202.6c-0.1-0.1-0.2-0.2-0.2-0.3l-59.2-34.2l-30.2-17.4c-0.1-0.1-0.2-0.1-0.2,0c-0.1,0-0.1,0.1-0.1,0.2
			l0,5.9l-0.2,75.8c0,0.1,0,0.2,0.1,0.3c0.1,0.1,0.2,0.2,0.2,0.3l30.2,17.4l59.2,34.2c0.1,0.1,0.2,0.1,0.2,0c0.1,0,0.1-0.1,0.1-0.2
			l0.2-75.8l0-5.9C466.3,202.8,466.2,202.7,466.2,202.6z M406.2,244.9l0-0.2l0,5l-29.5-17l0.2-75l9.6,5.6l10.1,5.8l9.8,5.7l-0.2,70
			l0.2-70.4L406.2,244.9z M465.4,283.9l-55.3-31.9l0.2-75l13.5,7.8l17,9.8l17,9.8l7.7,4.5L465.4,283.9z"/>
	</g>
	<g>
		<polyline class="st5" points="379.7,163.1 379.7,166.6 382.3,166.4 379.7,163.1 		"/>
		<path class="st2" d="M397.9,174.5l-13.5-7.8c-0.4-0.2-0.8,0-0.8,0.4c0,0.5,0.3,1.1,0.8,1.3l13.5,7.8c0.4,0.2,0.8,0,0.8-0.4
			C398.7,175.3,398.4,174.8,397.9,174.5"/>
		<polyline class="st5" points="383.7,184.7 383.7,188.1 386.3,187.9 383.7,184.7 		"/>
		<path class="st2" d="M397.1,193.3l-8.7-5c-0.4-0.2-0.8,0-0.8,0.4c0,0.5,0.3,1.1,0.8,1.3l8.7,5c0.4,0.2,0.8,0,0.8-0.4
			C397.9,194.1,397.5,193.5,397.1,193.3"/>
		<polyline class="st5" points="383.7,191.1 383.7,194.5 386.3,194.3 383.7,191.1 		"/>
		<path class="st2" d="M402.4,202.7l-14-8.1c-0.4-0.2-0.8,0-0.8,0.4c0,0.5,0.3,1.1,0.8,1.3l14,8.1c0.4,0.2,0.8,0,0.8-0.4
			C403.1,203.6,402.8,203,402.4,202.7"/>
		<polyline class="st5" points="383.6,197.5 383.6,200.9 386.2,200.7 383.6,197.5 		"/>
		<path class="st2" d="M394.9,204.8l-6.5-3.8c-0.4-0.2-0.8,0-0.8,0.4c0,0.5,0.3,1.1,0.8,1.3l6.5,3.8c0.4,0.2,0.8,0,0.8-0.4
			C395.6,205.7,395.3,205.1,394.9,204.8"/>
		<polyline class="st5" points="379.7,169.6 379.7,173 382.3,172.8 379.7,169.6 		"/>
		<path class="st2" d="M394.3,178.8l-9.8-5.7c-0.4-0.2-0.8,0-0.8,0.4c0,0.5,0.3,1.1,0.8,1.3l9.8,5.7c0.4,0.2,0.8,0,0.8-0.4
			C395,179.6,394.7,179,394.3,178.8"/>
		<polyline class="st5" points="379.6,201.6 379.6,205 382.2,204.8 379.6,201.6 		"/>
		<path class="st2" d="M397.8,212.9l-13.5-7.8c-0.4-0.2-0.8,0-0.8,0.4c0,0.5,0.3,1.1,0.8,1.3l13.5,7.8c0.4,0.2,0.8,0,0.8-0.4
			C398.6,213.8,398.3,213.2,397.8,212.9"/>
		<polyline class="st5" points="379.6,208 379.6,211.4 382.2,211.2 379.6,208 		"/>
		<path class="st2" d="M402.1,221.8l-17.7-10.2c-0.4-0.2-0.8,0-0.8,0.4c0,0.5,0.3,1.1,0.8,1.3l17.7,10.2c0.4,0.2,0.8,0,0.8-0.4
			C402.8,222.6,402.5,222,402.1,221.8"/>
		<path class="st2" d="M399.6,188.3l-15.2-8.8c-0.4-0.2-0.8,0-0.8,0.4c0,0.5,0.3,1.1,0.8,1.3l15.2,8.8c0.4,0.2,0.8,0,0.8-0.4
			C400.4,189.1,400.1,188.6,399.6,188.3"/>
	</g>
	<g>
		<g>
			<path class="st2" d="M428.6,191.6l-6.3-3.7c-0.4-0.2-0.7,0-0.7,0.4c0,0.4,0.3,1,0.7,1.2l6.3,3.7c0.4,0.2,0.7,0,0.7-0.4
				C429.3,192.3,429,191.8,428.6,191.6"/>
			<path class="st2" d="M452.1,205.1l-12-7c-0.4-0.2-0.7,0-0.7,0.4c0,0.4,0.3,1,0.7,1.2l12,7c0.4,0.2,0.7,0,0.7-0.4
				C452.8,205.9,452.5,205.4,452.1,205.1"/>
			<path class="st2" d="M444.4,205.5l-22.1-12.8c-0.4-0.2-0.7,0-0.7,0.4c0,0.4,0.3,1,0.7,1.2l22.1,12.8c0.4,0.2,0.7,0,0.7-0.4
				C445.1,206.3,444.8,205.7,444.4,205.5"/>
			<path class="st2" d="M458.1,213.4l-2.3-1.3c-0.4-0.2-0.7,0-0.7,0.4c0,0.4,0.3,1,0.7,1.2l2.3,1.3c0.4,0.2,0.7,0,0.7-0.4
				C458.8,214.2,458.5,213.7,458.1,213.4"/>
			<path class="st2" d="M444.9,213.8L425,202.3c-0.4-0.2-0.7,0-0.7,0.4c0,0.4,0.3,1,0.7,1.2l19.9,11.5c0.4,0.2,0.7,0,0.7-0.4
				C445.6,214.6,445.3,214,444.9,213.8"/>
			<path class="st2" d="M452.5,223l-29-16.7c-0.4-0.2-0.7,0-0.7,0.4c0,0.4,0.3,1,0.7,1.2l29,16.7c0.4,0.2,0.7,0,0.7-0.4
				C453.2,223.8,452.9,223.3,452.5,223"/>
			<path class="st2" d="M440.3,220.8l-12.6-7.3c-0.4-0.2-0.7,0-0.7,0.4c0,0.4,0.3,1,0.7,1.2l12.6,7.3c0.4,0.2,0.7,0,0.7-0.4
				C441,221.6,440.7,221,440.3,220.8"/>
			<path class="st2" d="M454.7,229.1l-11.6-6.7c-0.4-0.2-0.7,0-0.7,0.4c0,0.4,0.3,1,0.7,1.2l11.6,6.7c0.4,0.2,0.7,0,0.7-0.4
				C455.4,229.9,455.1,229.3,454.7,229.1"/>
			<path class="st2" d="M442.5,226.9l-14.7-8.5c-0.4-0.2-0.7,0-0.7,0.4c0,0.4,0.3,1,0.7,1.2l14.7,8.5c0.4,0.2,0.7,0,0.7-0.4
				C443.2,227.6,442.9,227.1,442.5,226.9"/>
			<path class="st2" d="M460.6,237.3l-15.3-8.8c-0.4-0.2-0.7,0-0.7,0.4c0,0.4,0.3,1,0.7,1.2l15.3,8.8c0.4,0.2,0.7,0,0.7-0.4
				C461.3,238.1,461,237.5,460.6,237.3"/>
			<path class="st2" d="M440.3,230.4l-12.6-7.3c-0.4-0.2-0.7,0-0.7,0.4c0,0.4,0.3,1,0.7,1.2l12.6,7.3c0.4,0.2,0.7,0,0.7-0.4
				C441,231.2,440.7,230.6,440.3,230.4"/>
			<path class="st2" d="M451.4,236.8l-8.3-4.8c-0.4-0.2-0.7,0-0.7,0.4c0,0.4,0.3,1,0.7,1.2l8.3,4.8c0.4,0.2,0.7,0,0.7-0.4
				C452.1,237.6,451.8,237.1,451.4,236.8"/>
			<path class="st2" d="M455.7,244.1l-18.1-10.4c-0.4-0.2-0.7,0-0.7,0.4c0,0.4,0.3,1,0.7,1.2l18.1,10.4c0.4,0.2,0.7,0,0.7-0.4
				C456.4,244.8,456,244.3,455.7,244.1"/>
			<path class="st2" d="M436.9,246.1l-12-6.9c-0.4-0.2-0.7,0-0.7,0.4c0,0.4,0.3,1,0.7,1.2l12,6.9c0.4,0.2,0.7,0,0.7-0.4
				C437.6,246.8,437.2,246.3,436.9,246.1"/>
			<path class="st2" d="M450.1,258.5l-26.6-15.4c-0.4-0.2-0.7,0-0.7,0.4c0,0.4,0.3,1,0.7,1.2l26.6,15.4c0.4,0.2,0.7,0,0.7-0.4
				C450.8,259.3,450.5,258.7,450.1,258.5"/>
			<path class="st2" d="M433.9,254l-6.3-3.6c-0.4-0.2-0.7,0-0.7,0.4c0,0.4,0.3,1,0.7,1.2l6.3,3.6c0.4,0.2,0.7,0,0.7-0.4
				C434.6,254.8,434.3,254.2,433.9,254"/>
			<path class="st2" d="M439.9,257.5l-3.2-1.9c-0.4-0.2-0.7,0-0.7,0.4c0,0.4,0.3,1,0.7,1.2l3.2,1.9c0.4,0.2,0.7,0,0.7-0.4
				C440.6,258.2,440.3,257.7,439.9,257.5"/>
			<path class="st2" d="M432.2,257.8l-4.6-2.6c-0.4-0.2-0.7,0-0.7,0.4s0.3,1,0.7,1.2l4.6,2.6c0.4,0.2,0.7,0,0.7-0.4
				C432.9,258.6,432.6,258,432.2,257.8"/>
			<path class="st2" d="M446.2,265.9l-11.2-6.5c-0.4-0.2-0.7,0-0.7,0.4s0.3,1,0.7,1.2l11.2,6.5c0.4,0.2,0.7,0,0.7-0.4
				C446.9,266.7,446.6,266.1,446.2,265.9"/>
		</g>
		<g>
			<path class="st2" d="M419.5,186.3l-5.9-3.4c-0.4-0.2-0.7,0-0.7,0.4c0,0.4,0.3,1,0.7,1.2l5.9,3.4c0.4,0.2,0.7,0,0.7-0.4
				C420.2,187.1,419.8,186.5,419.5,186.3"/>
			<path class="st2" d="M437.3,196.6l-5.9-3.4c-0.4-0.2-0.7,0-0.7,0.4c0,0.4,0.3,1,0.7,1.2l5.9,3.4c0.4,0.2,0.7,0,0.7-0.4
				C437.9,197.3,437.6,196.8,437.3,196.6"/>
			<path class="st2" d="M419.4,191.1l-5.9-3.4c-0.4-0.2-0.7,0-0.7,0.4c0,0.4,0.3,1,0.7,1.2l5.9,3.4c0.4,0.2,0.7,0,0.7-0.4
				C420.1,191.9,419.8,191.3,419.4,191.1"/>
			<path class="st2" d="M453,210.5l-5.9-3.4c-0.4-0.2-0.7,0-0.7,0.4c0,0.4,0.3,1,0.7,1.2l5.9,3.4c0.4,0.2,0.7,0,0.7-0.4
				C453.7,211.3,453.4,210.7,453,210.5"/>
			<path class="st2" d="M422.2,200.7l-8.7-5c-0.4-0.2-0.7,0-0.7,0.4c0,0.4,0.3,1,0.7,1.2l8.7,5c0.4,0.2,0.7,0,0.7-0.4
				C422.9,201.5,422.6,200.9,422.2,200.7"/>
			<path class="st2" d="M420.8,204.7l-3.1-1.8c-0.4-0.2-0.7,0-0.7,0.4c0,0.4,0.3,1,0.7,1.2l3.1,1.8c0.4,0.2,0.7,0,0.7-0.4
				C421.5,205.5,421.2,204.9,420.8,204.7"/>
			<path class="st2" d="M425,211.9l-3.1-1.8c-0.4-0.2-0.7,0-0.7,0.4c0,0.4,0.3,1,0.7,1.2l3.1,1.8c0.4,0.2,0.7,0,0.7-0.4
				C425.7,212.7,425.4,212.2,425,211.9"/>
			<path class="st2" d="M429.1,233.6l-7.3-4.2c-0.4-0.2-0.7,0-0.7,0.4c0,0.4,0.3,1,0.7,1.2l7.3,4.2c0.4,0.2,0.7,0,0.7-0.4
				C429.8,234.3,429.5,233.8,429.1,233.6"/>
			<path class="st2" d="M437.5,238.4l-5.7-3.3c-0.4-0.2-0.7,0-0.7,0.4c0,0.4,0.3,1,0.7,1.2l5.7,3.3c0.4,0.2,0.7,0,0.7-0.4
				C438.2,239.2,437.9,238.7,437.5,238.4"/>
			<path class="st2" d="M434.8,232l-7.1-4.1c-0.4-0.2-0.7,0-0.7,0.4c0,0.4,0.3,1,0.7,1.2l7.1,4.1c0.4,0.2,0.7,0,0.7-0.4
				C435.5,232.8,435.2,232.2,434.8,232"/>
			<path class="st2" d="M422.1,237.5l-8.7-5c-0.4-0.2-0.7,0-0.7,0.4c0,0.4,0.3,1,0.7,1.2l8.7,5c0.4,0.2,0.7,0,0.7-0.4
				C422.8,238.3,422.5,237.8,422.1,237.5"/>
			<path class="st2" d="M420.7,241.5l-3.1-1.8c-0.4-0.2-0.7,0-0.7,0.4c0,0.4,0.3,1,0.7,1.2l3.1,1.8c0.4,0.2,0.7,0,0.7-0.4
				C421.4,242.3,421.1,241.8,420.7,241.5"/>
			<path class="st2" d="M424.9,248.8l-3.1-1.8c-0.4-0.2-0.7,0-0.7,0.4c0,0.4,0.3,1,0.7,1.2l3.1,1.8c0.4,0.2,0.7,0,0.7-0.4
				C425.6,249.5,425.2,249,424.9,248.8"/>
		</g>
	</g>
</g>
<g>
	<g>
		<path class="st4" d="M475.5,276.8l-40.6-23.5c-0.8-0.4-1.5-0.5-2-0.2l-2.8,1.6c0.5-0.3,1.2-0.2,2,0.2l40.6,23.5
			c1.5,0.9,2.7,3,2.7,4.7l-0.1,36c0,0.9-0.3,1.5-0.8,1.8l2.8-1.6c0.5-0.3,0.8-0.9,0.8-1.8l0.1-36C478.3,279.8,477,277.7,475.5,276.8
			z"/>
		<path class="st3" d="M472.7,278.4c1.5,0.9,2.7,3,2.7,4.7l-0.1,36c0,1.7-1.2,2.4-2.8,1.6L432,297.3c-1.5-0.9-2.7-3-2.7-4.7l0.1-36
			c0-1.7,1.2-2.4,2.8-1.6L472.7,278.4z"/>
	</g>
	<g>
		<path class="st5" d="M436.6,266.2l-1.4-0.8l0,5.4l1.4,0.8L436.6,266.2 M435.9,263.4c-0.2-0.1-0.5-0.2-0.6-0.1
			c-0.2,0.1-0.2,0.2-0.2,0.5c0,0.2,0.1,0.5,0.2,0.8c0.2,0.3,0.4,0.5,0.6,0.6c0.2,0.1,0.5,0.2,0.6,0.1c0.2-0.1,0.2-0.2,0.2-0.5
			c0-0.2-0.1-0.5-0.2-0.7C436.3,263.7,436.1,263.5,435.9,263.4"/>
		<path class="st5" d="M439.8,266c-0.6-0.3-1-0.4-1.3-0.2s-0.5,0.6-0.5,1.2l0,0.2l-0.7-0.4l0,1.2l0.7,0.4l0,4.1l1.4,0.8l0-4.1
			l1.2,0.7l0-1.2l-1.2-0.7l0-0.2c0-0.5,0.2-0.7,0.6-0.4c0.2,0.1,0.4,0.3,0.5,0.5l0.4-0.9c-0.1-0.2-0.3-0.3-0.5-0.5
			C440.2,266.2,440,266.1,439.8,266"/>
		<path class="st2" d="M444.5,271.1c-0.9-0.5-1.6-0.1-1.6,0.9c0,1,0.7,2.3,1.6,2.8c0.9,0.5,1.6,0.1,1.6-0.9
			C446.1,272.9,445.4,271.6,444.5,271.1"/>
		<path class="st2" d="M449.4,273.9c-0.9-0.5-1.6-0.1-1.6,0.9c0,1,0.7,2.3,1.6,2.8c0.9,0.5,1.6,0.1,1.6-0.9
			C451,275.7,450.3,274.4,449.4,273.9"/>
		<path class="st2" d="M454.2,276.7c-0.9-0.5-1.6-0.1-1.6,0.9c0,1,0.7,2.3,1.6,2.8c0.9,0.5,1.6,0.1,1.6-0.9
			C455.9,278.5,455.1,277.3,454.2,276.7"/>
		<path class="st5" d="M436.2,280c0-0.3,0.2-0.5,0.4-0.6c0.2-0.1,0.5,0,0.8,0.1c0.3,0.2,0.6,0.4,0.8,0.7c0.2,0.3,0.3,0.7,0.4,1
			L436.2,280 M437.3,278.4c-0.5-0.3-0.9-0.4-1.3-0.4c-0.4,0-0.7,0.2-0.9,0.5c-0.2,0.3-0.3,0.7-0.3,1.2c0,0.5,0.1,1.1,0.3,1.6
			c0.2,0.5,0.5,1.1,0.9,1.5c0.4,0.5,0.9,0.9,1.4,1.2c0.8,0.5,1.5,0.6,1.9,0.2l-0.7-1.3c-0.2,0.1-0.3,0.1-0.5,0.1
			c-0.2,0-0.4-0.1-0.6-0.2c-0.4-0.2-0.6-0.5-0.9-0.8s-0.4-0.7-0.4-1l3.5,2c0-0.2,0-0.4,0-0.4c0-0.6-0.1-1.1-0.3-1.7
			c-0.2-0.5-0.5-1-0.9-1.5C438.2,279,437.8,278.6,437.3,278.4"/>
		<polyline class="st5" points="442,279.1 440.7,278.4 440.6,285.8 442,286.5 442,279.1 		"/>
		<path class="st5" d="M444.6,282.7l-1.4-0.8l0,5.4l1.4,0.8L444.6,282.7 M443.9,279.8c-0.2-0.1-0.5-0.2-0.6-0.1
			c-0.2,0.1-0.2,0.2-0.2,0.5c0,0.2,0.1,0.5,0.2,0.8c0.2,0.3,0.4,0.5,0.6,0.6c0.2,0.1,0.5,0.2,0.6,0.1c0.2-0.1,0.2-0.2,0.2-0.5
			c0-0.2-0.1-0.5-0.2-0.7C444.4,280.1,444.2,279.9,443.9,279.8"/>
		<path class="st5" d="M447.8,282.4c-0.6-0.3-1-0.4-1.3-0.2c-0.3,0.2-0.5,0.6-0.5,1.2l0,0.2l-0.7-0.4l0,1.2l0.7,0.4l0,4.1l1.4,0.8
			l0-4.1l1.2,0.7l0-1.2l-1.2-0.7l0-0.2c0-0.5,0.2-0.7,0.6-0.4c0.2,0.1,0.4,0.3,0.5,0.5l0.4-0.9c-0.1-0.2-0.3-0.3-0.5-0.5
			C448.2,282.7,448.1,282.5,447.8,282.4"/>
		<path class="st2" d="M452.7,287.6c-0.9-0.5-1.6-0.1-1.6,0.9c0,1,0.7,2.3,1.6,2.8c0.9,0.5,1.6,0.1,1.6-0.9
			C454.4,289.4,453.6,288.2,452.7,287.6"/>
		<path class="st2" d="M457.6,290.5c-0.9-0.5-1.6-0.1-1.6,0.9c0,1,0.7,2.3,1.6,2.8c0.9,0.5,1.6,0.1,1.6-0.9
			C459.3,292.3,458.5,291,457.6,290.5"/>
		<path class="st2" d="M462.5,293.3c-0.9-0.5-1.6-0.1-1.6,0.9c0,1,0.7,2.3,1.6,2.8c0.9,0.5,1.6,0.1,1.6-0.9
			C464.1,295.1,463.4,293.8,462.5,293.3"/>
		<path class="st5" d="M436.1,291.8c0-0.3,0.2-0.5,0.4-0.6c0.2-0.1,0.5,0,0.8,0.1c0.3,0.2,0.6,0.4,0.8,0.7c0.2,0.3,0.3,0.7,0.4,1
			L436.1,291.8 M437.3,290.1c-0.5-0.3-0.9-0.4-1.3-0.4c-0.4,0-0.7,0.2-0.9,0.5c-0.2,0.3-0.3,0.7-0.3,1.2c0,0.5,0.1,1.1,0.3,1.6
			c0.2,0.5,0.5,1.1,0.9,1.5c0.4,0.5,0.9,0.9,1.4,1.2c0.8,0.5,1.5,0.6,1.9,0.2l-0.7-1.3c-0.2,0.1-0.3,0.1-0.5,0.1
			c-0.2,0-0.4-0.1-0.6-0.2c-0.4-0.2-0.6-0.5-0.9-0.8c-0.2-0.3-0.4-0.7-0.4-1l3.5,2c0-0.2,0-0.4,0-0.4c0-0.6-0.1-1.1-0.3-1.7
			c-0.2-0.5-0.5-1-0.9-1.5C438.2,290.8,437.7,290.4,437.3,290.1"/>
		<polyline class="st5" points="442,290.9 440.6,290.1 440.6,297.5 442,298.3 442,290.9 		"/>
		<path class="st5" d="M445,294.6c-0.4-0.3-0.8-0.4-1.2-0.4c-0.3,0-0.6,0-0.7,0.2c-0.2,0.2-0.3,0.4-0.3,0.8c0,0.4,0.1,0.8,0.3,1.1
			c0.2,0.3,0.4,0.6,0.6,0.8c0.2,0.2,0.6,0.5,0.9,0.8c0.3,0.2,0.6,0.4,0.7,0.6c0.2,0.2,0.2,0.3,0.2,0.5c0,0.3-0.3,0.3-0.9,0
			c-0.3-0.2-0.6-0.4-0.9-0.6c-0.3-0.3-0.5-0.5-0.8-0.8l-0.5,0.9c0.2,0.3,0.5,0.6,0.9,0.9c0.4,0.3,0.7,0.6,1.1,0.8
			c0.5,0.3,0.9,0.4,1.2,0.5c0.3,0,0.6,0,0.8-0.2c0.2-0.2,0.3-0.4,0.3-0.7c0-0.4-0.1-0.8-0.3-1.1c-0.2-0.3-0.4-0.6-0.6-0.8
			c-0.2-0.2-0.6-0.5-0.9-0.8c-0.3-0.3-0.6-0.5-0.7-0.6c-0.2-0.2-0.2-0.3-0.2-0.5c0-0.1,0.1-0.2,0.2-0.2c0.1,0,0.4,0.1,0.7,0.2
			c0.5,0.3,0.9,0.7,1.3,1.2l0.5-0.8c-0.2-0.3-0.5-0.5-0.8-0.8C445.7,295.1,445.4,294.8,445,294.6"/>
		<path class="st5" d="M448.8,299.1c0-0.3,0.2-0.5,0.4-0.6c0.2-0.1,0.5,0,0.8,0.1c0.3,0.2,0.6,0.4,0.8,0.7c0.2,0.3,0.3,0.7,0.4,1
			L448.8,299.1 M450,297.5c-0.5-0.3-0.9-0.4-1.3-0.4c-0.4,0-0.7,0.2-0.9,0.5c-0.2,0.3-0.3,0.7-0.3,1.2c0,0.5,0.1,1.1,0.3,1.6
			c0.2,0.5,0.5,1.1,0.9,1.5c0.4,0.5,0.9,0.9,1.4,1.2c0.8,0.5,1.5,0.6,1.9,0.2l-0.7-1.3c-0.2,0.1-0.3,0.1-0.5,0.1
			c-0.2,0-0.4-0.1-0.6-0.2c-0.4-0.2-0.6-0.5-0.9-0.8c-0.2-0.3-0.4-0.7-0.4-1l3.5,2c0-0.2,0-0.4,0-0.4c0-0.6-0.1-1.1-0.3-1.7
			c-0.2-0.5-0.5-1-0.9-1.5C450.9,298.1,450.4,297.7,450,297.5"/>
		<path class="st6" d="M453.8,303.3c-0.2-0.1-0.4-0.2-0.6-0.1c-0.2,0.1-0.2,0.3-0.2,0.6c0,0.3,0.1,0.6,0.2,0.8
			c0.2,0.3,0.4,0.5,0.6,0.6c0.2,0.1,0.4,0.2,0.6,0.1c0.2-0.1,0.2-0.3,0.2-0.6c0-0.3-0.1-0.6-0.2-0.8
			C454.3,303.6,454.1,303.4,453.8,303.3 M453.8,299.7c-0.2-0.1-0.4-0.2-0.6-0.1c-0.2,0.1-0.2,0.3-0.2,0.6c0,0.3,0.1,0.6,0.2,0.8
			c0.2,0.3,0.4,0.5,0.6,0.6s0.4,0.2,0.6,0.1c0.2-0.1,0.2-0.3,0.2-0.6c0-0.3-0.1-0.6-0.2-0.8C454.3,300,454.1,299.8,453.8,299.7"/>
		<path class="st2" d="M458.5,302.9c-0.9-0.5-1.6-0.1-1.6,0.9c0,1,0.7,2.3,1.6,2.8c0.9,0.5,1.6,0.1,1.6-0.9
			C460.2,304.7,459.4,303.4,458.5,302.9"/>
		<path class="st2" d="M463.4,305.7c-0.9-0.5-1.6-0.1-1.6,0.9c0,1,0.7,2.3,1.6,2.8c0.9,0.5,1.6,0.1,1.6-0.9
			C465,307.5,464.3,306.2,463.4,305.7"/>
		<path class="st2" d="M468.3,308.5c-0.9-0.5-1.6-0.1-1.6,0.9c0,1,0.7,2.3,1.6,2.8c0.9,0.5,1.6,0.1,1.6-0.9
			C469.9,310.3,469.2,309,468.3,308.5"/>
	</g>
</g>
<g>
	<g>
		<path class="st4" d="M281.6,208.7L237,183c-0.8-0.4-1.5-0.5-2-0.2l-2.8,1.6c0.5-0.3,1.2-0.3,2,0.2l44.6,25.8
			c1.5,0.9,2.8,3,2.8,4.8l-0.1,10.5c0,0.9-0.3,1.5-0.8,1.8l2.8-1.6c0.5-0.3,0.8-0.9,0.8-1.8l0.1-10.5
			C284.4,211.8,283.1,209.6,281.6,208.7z"/>
		<path class="st3" d="M278.8,210.4c1.5,0.9,2.8,3,2.8,4.8l-0.1,10.5c0,1.8-1.2,2.5-2.8,1.6l-44.6-25.8c-1.5-0.9-2.8-3-2.8-4.8
			l0.1-10.5c0-1.8,1.2-2.5,2.8-1.6L278.8,210.4z"/>
	</g>
	<g>
		<polyline class="st5" points="244,196.6 242.8,195.9 241.7,198.9 240.5,194.6 239.4,193.9 238.2,196.9 237.1,192.6 235.8,191.9 
			237.5,198.3 238.8,199 239.9,196.3 241,200.3 242.3,201 244,196.6 		"/>
		<path class="st5" d="M246,195.7l-1.4-0.8l0,7.5l1.4,0.8l0-2.7c0-0.5,0.1-0.8,0.3-0.9c0.2-0.1,0.5-0.1,0.8,0.1
			c0.3,0.2,0.5,0.4,0.7,0.7c0.2,0.3,0.2,0.7,0.2,1.1l0,2.9l1.4,0.8l0-3.1c0-0.8-0.2-1.5-0.5-2.1c-0.4-0.6-0.8-1.1-1.4-1.4
			c-0.3-0.2-0.6-0.3-0.8-0.3c-0.3,0-0.5,0-0.7,0.1L246,195.7"/>
		<path class="st5" d="M252.1,201.3l-1.4-0.8l0,5.4l1.4,0.8L252.1,201.3 M251.4,198.4c-0.3-0.1-0.5-0.2-0.6-0.1
			c-0.2,0.1-0.2,0.2-0.2,0.5c0,0.2,0.1,0.5,0.2,0.8c0.2,0.3,0.4,0.5,0.6,0.6c0.3,0.1,0.5,0.2,0.6,0.1c0.2-0.1,0.2-0.3,0.2-0.5
			c0-0.2-0.1-0.5-0.2-0.7C251.8,198.7,251.6,198.5,251.4,198.4"/>
		<polyline class="st5" points="254.7,200.7 253.3,199.9 253.3,207.4 254.7,208.2 254.7,200.7 		"/>
		<path class="st5" d="M257,206.3c0-0.3,0.2-0.5,0.4-0.6c0.2-0.1,0.5,0,0.8,0.1c0.3,0.2,0.6,0.4,0.8,0.8c0.2,0.3,0.3,0.7,0.4,1
			L257,206.3 M258.1,204.7c-0.5-0.3-0.9-0.4-1.3-0.4c-0.4,0-0.7,0.2-0.9,0.5c-0.2,0.3-0.3,0.7-0.3,1.2c0,0.5,0.1,1.1,0.3,1.6
			c0.2,0.5,0.5,1.1,0.9,1.5c0.4,0.5,0.9,0.9,1.4,1.2c0.9,0.5,1.5,0.6,1.9,0.2l-0.7-1.3c-0.2,0.1-0.3,0.1-0.5,0.1
			c-0.2,0-0.4-0.1-0.7-0.3c-0.4-0.2-0.7-0.5-0.9-0.8c-0.2-0.3-0.4-0.7-0.5-1.1l3.6,2.1c0-0.3,0-0.4,0-0.4c0-0.6-0.1-1.1-0.3-1.7
			c-0.2-0.5-0.5-1-0.9-1.5C259,205.3,258.6,204.9,258.1,204.7"/>
		<path class="st2" d="M264.4,208.7c-0.9-0.5-1.7-0.1-1.7,0.9c0,1,0.7,2.3,1.6,2.9c0.9,0.5,1.7,0.1,1.7-0.9
			C266.1,210.5,265.3,209.2,264.4,208.7"/>
		<path class="st2" d="M269.3,211.5c-0.9-0.5-1.7-0.1-1.7,0.9s0.7,2.3,1.6,2.9c0.9,0.5,1.7,0.1,1.7-0.9
			C271,213.3,270.3,212,269.3,211.5"/>
		<path class="st2" d="M274.3,214.3c-0.9-0.5-1.7-0.1-1.7,0.9c0,1,0.7,2.3,1.6,2.9c0.9,0.5,1.7,0.1,1.7-0.9
			C275.9,216.2,275.2,214.9,274.3,214.3"/>
	</g>
</g>
<g>
	<g>
		<path class="st4" d="M396.4,336.6l-36.6-21.2c-0.9-0.5-1.7-0.6-2.3-0.2l-3.3,1.9c0.6-0.3,1.4-0.3,2.3,0.2l36.6,21.2
			c1.8,1,3.2,3.5,3.2,5.6l-0.1,12.3c0,1-0.4,1.7-0.9,2.1l3.3-1.9c0.6-0.3,0.9-1.1,0.9-2.1l0.1-12.3
			C399.6,340.1,398.2,337.6,396.4,336.6z"/>
		<path class="st3" d="M393.1,338.5c1.8,1,3.2,3.5,3.2,5.6l-0.1,12.3c0,2-1.5,2.9-3.2,1.8L356.3,337c-1.8-1-3.2-3.5-3.2-5.6
			l0.1-12.3c0-2,1.5-2.9,3.2-1.8L393.1,338.5z"/>
	</g>
	<g>
		<path class="st5" d="M361.4,325.2c-0.7-0.4-1.2-0.5-1.6-0.3c-0.4,0.2-0.6,0.7-0.6,1.4l0,0.3l-0.8-0.5l0,1.4l0.8,0.5l0,4.7l1.6,0.9
			l0-4.7l1.4,0.8l0-1.4l-1.4-0.8l0-0.3c0-0.6,0.2-0.8,0.7-0.5c0.2,0.1,0.5,0.3,0.6,0.6l0.4-1.1c-0.1-0.2-0.3-0.4-0.5-0.6
			C361.8,325.5,361.6,325.4,361.4,325.2"/>
		<path class="st5" d="M365.5,335c-0.4-0.2-0.7-0.6-1-1.1c-0.3-0.5-0.4-1-0.4-1.5c0-0.5,0.1-0.9,0.4-1c0.3-0.2,0.6-0.1,1,0.1
			c0.4,0.2,0.7,0.6,1,1.1c0.3,0.5,0.4,1,0.4,1.5s-0.1,0.9-0.4,1C366.2,335.3,365.9,335.2,365.5,335 M365.5,330
			c-0.6-0.3-1.1-0.5-1.6-0.5c-0.5,0-0.8,0.2-1.1,0.5c-0.3,0.3-0.4,0.8-0.4,1.4c0,0.6,0.1,1.3,0.4,1.9c0.3,0.6,0.6,1.2,1.1,1.8
			c0.5,0.5,1,1,1.6,1.3c0.6,0.3,1.1,0.5,1.5,0.5c0.5,0,0.8-0.2,1.1-0.5c0.3-0.3,0.4-0.8,0.4-1.4c0-0.6-0.1-1.3-0.4-1.9
			c-0.3-0.6-0.6-1.2-1.1-1.8C366.6,330.8,366.1,330.4,365.5,330"/>
		<path class="st5" d="M373,334.3c-0.4-0.2-0.8-0.4-1.1-0.4c-0.3,0-0.6,0.1-0.8,0.2l0-0.8l-1.5-0.9l0,6.3l1.6,0.9l0-3
			c0-0.6,0.1-0.9,0.4-1.1c0.3-0.1,0.6-0.1,1.1,0.2c0.1,0,0.2,0.1,0.4,0.2L373,334.3"/>
		<path class="st2" d="M377.6,337.4c-1.1-0.6-1.9-0.1-1.9,1.1c0,1.2,0.9,2.7,1.9,3.3c1.1,0.6,1.9,0.1,1.9-1.1
			C379.5,339.5,378.6,338,377.6,337.4"/>
		<path class="st2" d="M383.3,340.7c-1.1-0.6-1.9-0.1-1.9,1.1c0,1.2,0.9,2.7,1.9,3.3c1.1,0.6,1.9,0.1,1.9-1.1
			C385.2,342.8,384.3,341.3,383.3,340.7"/>
		<path class="st2" d="M389,344c-1.1-0.6-1.9-0.1-1.9,1.1c0,1.2,0.9,2.7,1.9,3.3c1.1,0.6,1.9,0.1,1.9-1.1
			C390.9,346.1,390.1,344.6,389,344"/>
	</g>
</g>
<g>
	<g>
		<path class="st4" d="M548.8,172.5l-69-39.9c-1-0.6-1.9-0.6-2.6-0.3l-3.7,2.1c0.7-0.4,1.6-0.3,2.6,0.3l69,39.9
			c2,1.1,3.6,3.9,3.6,6.2l-0.1,13.7c0,1.1-0.4,1.9-1.1,2.3l3.7-2.1c0.6-0.4,1-1.2,1.1-2.3l0.1-13.7
			C552.4,176.5,550.8,173.7,548.8,172.5z"/>
		<path class="st3" d="M545.1,174.7c2,1.1,3.6,3.9,3.6,6.2l-0.1,13.7c0,2.3-1.6,3.2-3.6,2.1l-69-39.9c-2-1.1-3.6-3.9-3.6-6.2
			l0.1-13.7c0-2.3,1.6-3.2,3.6-2.1L545.1,174.7z"/>
	</g>
	<g>
		<path class="st2" d="M487.6,150.2l-8.7-5c-1.2-0.7-2.2-0.1-2.2,1.2c0,1.4,1,3,2.1,3.7l8.7,5c1.2,0.7,2.2,0.1,2.2-1.2
			C489.8,152.6,488.8,150.9,487.6,150.2"/>
		<path class="st5" d="M494.4,153.7l-1.8-1l0,7l1.8,1L494.4,153.7 M493.5,149.9c-0.3-0.2-0.6-0.2-0.8-0.1c-0.2,0.1-0.3,0.3-0.3,0.6
			c0,0.3,0.1,0.7,0.3,1c0.2,0.3,0.5,0.6,0.8,0.8c0.3,0.2,0.6,0.2,0.8,0.1c0.2-0.1,0.3-0.3,0.3-0.7c0-0.3-0.1-0.6-0.3-1
			C494.1,150.4,493.9,150.1,493.5,149.9"/>
		<path class="st5" d="M499.8,156.7c-0.4-0.2-0.8-0.4-1.2-0.4c-0.3,0-0.6,0-0.9,0.2l0-0.8l-1.7-1l0,7l1.8,1l0-3.5
			c0-0.6,0.1-1,0.4-1.2c0.3-0.2,0.6-0.1,1.1,0.1c0.4,0.2,0.7,0.5,0.9,0.9c0.2,0.4,0.3,0.9,0.3,1.4l0,3.7l1.8,1l0-4
			c0-1-0.2-1.9-0.7-2.7C501.2,157.8,500.6,157.1,499.8,156.7"/>
		<path class="st2" d="M514,165.5l-2.2-1.3c-1.2-0.7-2.2-0.1-2.2,1.2c0,1.4,1,3,2.1,3.7l2.2,1.3c1.2,0.7,2.2,0.1,2.2-1.2
			C516.2,167.8,515.2,166.2,514,165.5"/>
		<path class="st2" d="M524.9,171.8l-2.2-1.3c-1.2-0.7-2.2-0.1-2.2,1.2c0,1.4,1,3,2.1,3.7l2.2,1.3c1.2,0.7,2.2,0.1,2.2-1.2
			C527,174.1,526.1,172.4,524.9,171.8"/>
		<path class="st2" d="M535.7,178l-2.2-1.3c-1.2-0.7-2.2-0.1-2.2,1.2c0,1.4,1,3,2.1,3.7l2.2,1.3c1.2,0.7,2.2,0.1,2.2-1.2
			C537.8,180.4,536.9,178.7,535.7,178"/>
		<path class="st2" d="M507.4,159.3l-1.9-1.1c-0.1-0.1-0.3-0.1-0.4,0c-0.1,0.1-0.2,0.2-0.2,0.4l0,8.5c0,0.2,0.1,0.4,0.2,0.5
			c0.1,0.2,0.2,0.3,0.4,0.4l1.9,1.1c0.3,0.2,0.6,0,0.6-0.3c0-0.4-0.2-0.8-0.6-1L506,167l0-7.2l1.3,0.8c0.3,0.2,0.6,0,0.6-0.3
			C508,159.9,507.7,159.4,507.4,159.3L507.4,159.3"/>
		<path class="st2" d="M542,179.3l-1.9-1.1c-0.3-0.2-0.6,0-0.6,0.3c0,0.4,0.2,0.8,0.6,1l1.3,0.8l0,7.2l-1.3-0.8
			c-0.3-0.2-0.6,0-0.6,0.3c0,0.4,0.2,0.8,0.6,1l1.9,1.1c0.1,0.1,0.3,0.1,0.4,0c0.1-0.1,0.2-0.2,0.2-0.4l0-8.5c0-0.2-0.1-0.4-0.2-0.5
			C542.3,179.5,542.2,179.3,542,179.3"/>
		<path class="st2" d="M518.3,171.4c-0.2-0.1-0.4-0.2-0.6-0.1c-0.1,0.1-0.2,0.2-0.2,0.5c0,0.2,0,0.4,0.1,0.5
			c0.1,0.2,0.2,0.3,0.3,0.5l-0.4,1.3l0.8,0.5l0.5-1.1c0.1-0.2,0.2-0.3,0.2-0.5c0-0.1,0-0.2,0-0.3c0-0.3-0.1-0.5-0.2-0.8
			C518.8,171.7,518.6,171.5,518.3,171.4"/>
		<path class="st2" d="M529.2,177.6c-0.2-0.1-0.4-0.2-0.6-0.1c-0.1,0.1-0.2,0.2-0.2,0.5c0,0.2,0,0.4,0.1,0.5
			c0.1,0.2,0.2,0.3,0.3,0.5l-0.4,1.3l0.8,0.5l0.5-1.1c0.1-0.2,0.2-0.3,0.2-0.5c0-0.1,0-0.2,0-0.3c0-0.3-0.1-0.5-0.2-0.8
			C529.6,177.9,529.4,177.8,529.2,177.6"/>
	</g>
</g>
<g>
	<g>
		<path class="st4" d="M494.9,88.9l-44.1-25.5c-1-0.6-1.9-0.6-2.6-0.3l-3.7,2.1c0.7-0.4,1.6-0.3,2.6,0.3L491.3,91
			c2,1.1,3.6,3.9,3.6,6.2l-0.1,13.7c0,1.1-0.4,1.9-1.1,2.3l3.7-2.1c0.6-0.4,1-1.2,1.1-2.3l0.1-13.7C498.5,92.8,496.9,90,494.9,88.9z
			"/>
		<path class="st3" d="M491.3,91c2,1.1,3.6,3.9,3.6,6.2l-0.1,13.7c0,2.3-1.6,3.2-3.6,2.1L447,87.5c-2-1.1-3.6-3.9-3.6-6.2l0.1-13.7
			c0-2.3,1.6-3.2,3.6-2.1L491.3,91z"/>
	</g>
	<g>
		<path class="st2" d="M459.9,81.8l-8.7-5c-1.2-0.7-2.2-0.1-2.2,1.2c0,1.4,1,3,2.1,3.7l8.7,5c1.2,0.7,2.2,0.1,2.2-1.2
			C462,84.2,461,82.5,459.9,81.8"/>
		<path class="st2" d="M487,97.5l-8.7-5c-1.2-0.7-2.2-0.1-2.2,1.2c0,1.4,1,3,2.1,3.7l8.7,5c1.2,0.7,2.2,0.1,2.2-1.2
			C489.1,99.8,488.2,98.2,487,97.5"/>
		<path class="st5" d="M466.7,85.3l-1.8-1l0,7l1.8,1L466.7,85.3 M465.8,81.5c-0.3-0.2-0.6-0.2-0.8-0.1c-0.2,0.1-0.3,0.3-0.3,0.6
			c0,0.3,0.1,0.7,0.3,1c0.2,0.3,0.5,0.6,0.8,0.8c0.3,0.2,0.6,0.2,0.8,0.1c0.2-0.1,0.3-0.3,0.3-0.7c0-0.3-0.1-0.6-0.3-1
			C466.4,82,466.1,81.7,465.8,81.5"/>
		<path class="st5" d="M470.7,87.5c-0.6-0.3-1.1-0.5-1.5-0.6c-0.4-0.1-0.8,0-1,0.2c-0.2,0.2-0.3,0.5-0.3,1c0,0.5,0.1,1,0.4,1.4
			c0.2,0.4,0.5,0.8,0.8,1.1c0.3,0.3,0.7,0.6,1.2,1c0.4,0.3,0.7,0.6,0.9,0.8c0.2,0.2,0.3,0.4,0.3,0.6c0,0.4-0.4,0.4-1.1,0
			c-0.4-0.2-0.8-0.5-1.1-0.8c-0.4-0.3-0.7-0.7-1-1.1l-0.6,1.1c0.3,0.4,0.7,0.8,1.2,1.2c0.5,0.4,1,0.8,1.5,1.1
			c0.6,0.3,1.1,0.6,1.6,0.6c0.4,0.1,0.8,0,1-0.2c0.2-0.2,0.3-0.5,0.3-1c0-0.5-0.1-1-0.3-1.4c-0.2-0.4-0.5-0.8-0.8-1.1
			c-0.3-0.3-0.7-0.6-1.2-1c-0.4-0.3-0.8-0.6-1-0.8c-0.2-0.2-0.3-0.4-0.3-0.6c0-0.2,0.1-0.3,0.3-0.3c0.2,0,0.5,0.1,0.9,0.3
			c0.6,0.4,1.2,0.9,1.8,1.5l0.6-1.1c-0.3-0.4-0.6-0.7-1.1-1.1C471.6,88.1,471.1,87.8,470.7,87.5"/>
	</g>
</g>
<g>
	<path class="st4" d="M314.3,126.6l-50.3-29c-1.2-0.7-2.2-0.7-3-0.3l-4.5,2.6c0.8-0.4,1.8-0.4,3,0.3l50.3,29
		c2.3,1.3,4.2,4.6,4.2,7.3l-0.2,57.8c0,1.3-0.5,2.3-1.2,2.7l4.5-2.6c0.8-0.4,1.2-1.4,1.2-2.7l0.2-57.8
		C318.5,131.2,316.7,128,314.3,126.6z"/>
	<path class="st3" d="M309.8,129.3c2.3,1.3,4.2,4.6,4.2,7.3l-0.2,57.8c0,2.7-1.9,3.8-4.2,2.4l-50.3-29c-2.3-1.3-4.2-4.6-4.2-7.3
		l0.2-57.8c0-2.7,1.9-3.8,4.2-2.4L309.8,129.3z"/>
	<g>
		<g>
			<path class="st5" d="M278.7,128.6c-1.1-0.6-2-2.1-2-3.4c0-1.3,0.9-1.8,2-1.2c1.1,0.6,2,2.2,2,3.4
				C280.7,128.7,279.8,129.3,278.7,128.6 M284.5,123.7c0,0-0.1-0.1-0.1-0.1c-1.8-1-3.5-1.8-5-2.4c-4.4-1.7-5.2-0.2-5.2,3.2l0,4.6
				l10.4,6l0,1.5l-10.4-6l-3.9-2.3c-3-1.8-5.7-1.2-6.5,2.3c-1,4-1,6.8,0,12.2c0.7,4,2.5,7.5,5.5,9.3l3.6,2.1l0-5.5
				c0-4,3-5.7,6.5-3.7l10.4,6c2.9,1.7,5.2,0.3,5.2-3.1l0-11.4c0-3.2-2.4-7.1-5.2-9.2C288.1,125.9,286.3,124.7,284.5,123.7"/>
		</g>
		<g>
			<path class="st5" d="M290.3,173.5c-1.1-0.6-2-2.2-2-3.4c0-1.3,0.9-1.8,2-1.1c1.1,0.6,2,2.1,2,3.4
				C292.3,173.6,291.4,174.1,290.3,173.5 M300.2,145.6l-3.9-2.3l0,5.3c0,4.1-3.1,5.8-6.5,3.8l-10.4-6c-2.9-1.6-5.2-0.2-5.2,3.1
				l0,11.4c0,3.2,2.4,6.6,5.2,9.1c1.7,1.6,3.4,2.9,5.2,3.9c1.6,0.9,3.4,1.7,5.2,2.1c2.6,0.6,5.2,0.4,5.2-3.1l0-4.6l-10.4-6l0-1.5
				l10.4,6l5.2,3c3,1.8,4.2,0,5.2-3.1c1.1-3.1,1.1-6.8,0-12.2C304.7,150.8,303.3,147.4,300.2,145.6"/>
		</g>
	</g>
</g>
<g>
	<path class="st4" d="M369.9,234.8l-46.1-26.6c-1.1-0.6-2-0.7-2.7-0.3l-4.1,2.4c0.7-0.4,1.7-0.4,2.7,0.3l46.1,26.6
		c2.1,1.2,3.9,4.2,3.9,6.7l-0.2,53c0,1.2-0.4,2.1-1.1,2.5l4.1-2.4c0.7-0.4,1.1-1.3,1.1-2.5l0.2-53
		C373.7,239.1,372,236.1,369.9,234.8z"/>
	<path class="st3" d="M365.7,237.2c2.1,1.2,3.9,4.2,3.9,6.7l-0.2,53c0,2.5-1.7,3.4-3.9,2.2l-46.1-26.6c-2.1-1.2-3.9-4.2-3.9-6.7
		l0.2-53c0-2.5,1.7-3.4,3.9-2.2L365.7,237.2z"/>
</g>
<g>
	<polygon class="st4" points="363,204.6 359.1,206.8 354.6,204.1 358.5,201.9 	"/>
	<path class="st4" d="M358.5,201.9l-3.9,2.2c0-0.9-0.1-1.6-0.1-2.4c-0.1-1.2-0.2-1.5-0.4-2.9c-0.5-2.2-0.9-3.6-1.7-5.8
		c-1.5-3.9-3.3-7.2-6-10.8c-1.4-1.9-2.4-2.9-4-4.5c-1.6-1.5-2.6-2.3-4.4-3.6c-1.1-0.7-1.9-1.2-3.2-1.8c-1.7-0.7-3.2-1.2-5.1-1.4
		c-1.6-0.1-2.9,0-4.4,0.6c-0.4,0.2-0.7,0.3-1.2,0.6c4.4-2.6,4.1-2.4,4.8-2.7c1.5-0.6,2.8-0.8,4.3-0.7c1.8,0.1,3.4,0.5,5.1,1.2
		c2.9,1.3,5.2,2.9,7.5,5c1.6,1.5,2.6,2.6,4.1,4.4c1.4,1.9,2.3,3.1,3.5,5.1c2.2,3.9,3.6,7.2,4.6,11.4
		C358.2,197.9,358.5,199.7,358.5,201.9z"/>
	<path class="st3" d="M354.6,204.1c0-1.6-0.2-3.1-0.5-4.5c-0.4-2.2-0.8-3.6-1.6-5.8c-0.8-2.2-1.4-3.6-2.5-5.7
		c-2.1-3.8-4.2-6.8-7.2-9.9c-1.6-1.6-2.7-2.5-4.4-3.7c-1.3-0.8-2.1-1.3-3.4-2c-1.7-0.8-3.2-1.3-5.1-1.5c-1.6-0.1-2.9,0-4.4,0.5
		c-0.8,0.3-1.2,0.5-1.9,0.9c-0.6,0.4-0.9,0.5-1.4,1.1l0.4,0.6c1.4,2.4,0.7,1.2,3.4,5.8c0.9-0.9,1.7-1.4,2.8-1.7
		c1.2-0.3,2.2-0.3,3.4-0.1c2.2,0.4,4,1.4,5.8,2.6c1.2,0.9,1.9,1.5,3.1,2.7c2.1,2.2,3.5,4.3,5,7.1c1.4,2.8,2.1,5.1,2.6,7.6
		c0.2,1.1,0.3,1.8,0.3,2.6l-4.7-2.4l0.6,1.1c5.5,9.5,4.1,7.2,6.6,11.3l6.4-3.2l1.4-0.7L354.6,204.1z"/>
	<path class="st4" d="M348.9,200.8c0,0-0.2,0-5.1-2.7l4.3-1.9C348.6,197.8,348.8,199,348.9,200.8z"/>
</g>
<polygon class="st7" points="324.8,250.7 324.9,220.4 359.1,240.2 359,270.4 "/>
<g>
	<path class="st5" d="M333.1,229.2c-1.6-0.9-3-0.2-3,1.7l0,4.5c0,1.3-0.9,1.8-2,1.1c-0.5-0.3-1-0.1-1,0.6c0,0.6,0.4,1.4,1,1.7
		c1.1,0.6,2,2.2,2,3.4l0,4.5c0,1.9,1.3,4.2,2.9,5.1c0.5,0.3,1,0.1,1-0.6c0-0.6-0.4-1.4-1-1.7c-0.5-0.3-1-1.1-1-1.7l0-4.5
		c0-1.4-0.5-2.9-1.4-4.2c0.8-0.4,1.4-1.3,1.4-2.6l0-4.5c0-0.6,0.4-0.9,1-0.6c0.5,0.3,1,0.1,1-0.6
		C334.1,230.3,333.6,229.5,333.1,229.2 M340,238.8c-0.8-0.5-1.5-0.1-1.5,0.8c0,0.9,0.7,2.1,1.5,2.6c0.8,0.5,1.5,0.1,1.5-0.8
		C341.4,240.5,340.8,239.3,340,238.8 M339.9,246.8c-0.5-0.3-1-0.1-1,0.6l0,3.4c0,0.6,0.4,1.4,1,1.7c0.5,0.3,1,0.1,1-0.6l0-3.4
		C340.9,247.8,340.5,247.1,339.9,246.8 M346.9,237.2c-0.5-0.3-1-0.1-1,0.6c0,0.6,0.4,1.4,1,1.7c0.5,0.3,1,1.1,1,1.7l0,4.5
		c0,1.4,0.5,2.9,1.4,4.2c-0.8,0.4-1.4,1.2-1.4,2.6l0,4.5c0,0.6-0.4,0.9-1,0.6c-0.5-0.3-1-0.1-1,0.6c0,0.6,0.4,1.4,1,1.7
		c1.6,0.9,3,0.2,3-1.7l0-4.5c0-1.3,0.9-1.8,2-1.1c0.5,0.3,1,0.1,1-0.6c0-0.6-0.4-1.4-1-1.7c-1.1-0.6-2-2.2-2-3.4l0-4.5
		C349.8,240.4,348.5,238.1,346.9,237.2"/>
</g>
<polygon class="st7" points="323,270.4 323,255.4 356.9,274.9 356.8,290 "/>
<g>
	<path class="st5" d="M327.7,256.7l-1.7-1l0,10.4c0,0.9-0.1,1.5-0.8,1.1c-0.3-0.2-0.5-0.4-0.7-0.5l-0.1,1.4c0.1,0.1,0.6,0.6,1.2,0.9
		c0.7,0.4,1.3,0.4,1.6,0.1c0.3-0.3,0.5-0.9,0.5-2L327.7,256.7"/>
	<path class="st5" d="M332.5,259.4c-1.9-1.1-3.2-0.6-3.2,1.3c0,1.3,0.7,2.5,1.6,3.5l1.4,1.5c0.8,0.8,1.3,1.4,1.3,2.2
		c0,0.9-0.6,1-1.4,0.6c-0.9-0.5-1.7-1.5-2.4-2.8l-0.8,1c0.6,1.1,1.7,2.6,3.2,3.5c1.9,1.1,3.2,0.5,3.2-1.4c0-1.3-0.5-2.4-1.8-3.8
		l-1.5-1.6c-0.5-0.5-1-1.1-1-1.9c0-0.8,0.6-0.9,1.4-0.4c0.8,0.5,1.5,1.3,2.1,2.2l0.8-0.9C334.7,261.3,333.8,260.1,332.5,259.4"/>
	<path class="st5" d="M341,273.3c-1.7-1-3-3.1-3-5.4c0-2.3,1.3-2.9,3-1.9c1.7,1,3,3.1,3,5.4C344,273.6,342.6,274.3,341,273.3
		 M341,264.2c-2.6-1.5-4.8-0.7-4.8,2.7c0,3.4,2.1,6.6,4.8,8.2c2.6,1.5,4.8,0.7,4.8-2.7C345.7,269,343.6,265.8,341,264.2"/>
	<path class="st5" d="M355.1,272.6l-1.7-1l0,5.2c0,1.2,0,2.5,0,2.5l-4.5-10.3l-1.8-1.1l0,10.5l1.7,1l0-5.2c0-1.2,0-2.6,0-2.6
		l4.6,10.4l1.7,1L355.1,272.6"/>
</g>
</svg>
